<svg preserveAspectRatio="none" overflow="visible" style="display: block;" width="12" height="12" viewBox="0 0 12 12" fill="none" xmlns="http://www.w3.org/2000/svg">
<g id="shield-check" clip-path="url(#clip0_0_6)">
<path id="Vector" d="M4.50015 5.99976L5.50005 6.99979L7.49985 4.99973M9.9996 6.5C9.9996 9.00008 8.24977 10.2501 6.16998 10.9751C6.06108 11.0121 5.94277 11.0103 5.83502 10.9701C3.75023 10.2501 2.0004 9.00008 2.0004 6.5V2.99989C2.0004 2.86728 2.05307 2.7401 2.14683 2.64632C2.24059 2.55255 2.36776 2.49987 2.50035 2.49987C3.50025 2.49987 4.75012 1.89985 5.62004 1.13983C5.72595 1.04933 5.86069 0.9996 6 0.9996C6.13931 0.9996 6.27405 1.04933 6.37996 1.13983C7.25487 1.90485 8.49975 2.49987 9.49965 2.49987C9.63224 2.49987 9.75941 2.55255 9.85317 2.64632C9.94693 2.7401 9.9996 2.86728 9.9996 2.99989V6.5Z" stroke="#00D4C8" stroke-width="2" stroke-linecap="round"/>
</g>
<defs>
<clipPath id="clip0_0_6">
<rect width="12" height="12" fill="white"/>
</clipPath>
</defs>
</svg>
