<svg xmlns="http://www.w3.org/2000/svg" width="18" height="18" viewBox="0 0 18 18" fill="none">
  <path d="M9.4 2.1a1.2 1.2 0 0 0-1 0L2.2 4.9a.7.7 0 0 0 0 1.25l6.2 2.85a1.2 1.2 0 0 0 1 0l6.2-2.85a.7.7 0 0 0 0-1.25L9.4 2.1Z" stroke="#8A9BB0" stroke-width="1.5" stroke-linejoin="round"/>
  <path d="M15.75 11.4 9.4 14.35a1.2 1.2 0 0 1-1 0L2.05 11.4" stroke="#8A9BB0" stroke-width="1.5" stroke-linecap="round"/>
  <path d="M15.75 8.15 9.4 11.1a1.2 1.2 0 0 1-1 0L2.05 8.15" stroke="#8A9BB0" stroke-width="1.5" stroke-linecap="round"/>
</svg>
